<?xml version="1.0" standalone="no"?>
<!DOCTYPE svg PUBLIC "-//W3C//DTD SVG 20010904//EN"
 "http://www.w3.org/TR/2001/REC-SVG-20010904/DTD/svg10.dtd">
<svg version="1.0" xmlns="http://www.w3.org/2000/svg"
 width="3464.000000pt" height="3464.000000pt" viewBox="0 0 3464.000000 3464.000000"
 preserveAspectRatio="xMidYMid meet">

<g transform="translate(0.000000,3464.000000) scale(0.100000,-0.100000)"
fill="#000000" stroke="none">
<path d="M3990 33983 c-807 -61 -1564 -389 -2150 -931 -619 -572 -999 -1311
-1117 -2167 -17 -124 -18 -712 -18 -13410 0 -10944 2 -13298 13 -13380 63
-474 187 -870 396 -1261 452 -849 1194 -1455 2128 -1738 212 -64 511 -117 768
-136 222 -17 26425 -8 26540 8 530 76 800 156 1215 361 370 184 610 356 911
656 315 314 488 553 679 938 214 429 330 856 365 1342 8 107 10 3913 8 13310
-4 12451 -5 13166 -21 13280 -43 296 -82 467 -157 696 -257 784 -770 1442
-1475 1894 -150 96 -476 257 -655 323 -239 89 -484 151 -765 194 l-150 22
-13235 1 c-7279 1 -13255 0 -13280 -2z m9885 -3527 c435 -66 956 -220 1590
-469 600 -236 1253 -578 1590 -833 l31 -23 76 57 c174 130 558 347 883 500
854 400 1909 727 2520 782 208 19 337 2 474 -61 200 -93 335 -325 385 -661 63
-425 20 -1289 -105 -2123 -174 -1155 -526 -2426 -997 -3600 -721 -1797 -1701
-3386 -2846 -4615 -200 -215 -371 -380 -392 -380 -27 0 -250 219 -484 476
-781 855 -1487 1887 -2082 3039 -1059 2051 -1711 4364 -1798 6380 -23 555 -4
842 74 1075 100 300 278 439 601 470 120 12 356 4 480 -14z m-7070 -5017 c188
-26 504 -119 865 -255 2147 -807 4434 -2448 6141 -4405 714 -818 1310 -1687
1789 -2605 70 -133 73 -142 61 -171 -11 -26 -46 -47 -289 -166 -714 -349
-1370 -595 -2247 -842 -759 -214 -1704 -390 -2570 -480 -612 -63 -992 -84
-1630 -92 -1434 -17 -2751 135 -3939 453 -294 79 -523 150 -681 211 -547 210
-745 469 -669 874 61 334 224 664 578 1179 517 751 1195 1502 1727 1914 l115
89 -38 111 c-189 554 -298 1558 -268 2469 21 643 85 1075 200 1359 84 205 250
329 495 368 68 10 246 5 360 -11z m20990 -4 c114 -32 185 -73 265 -154 86 -88
144 -185 214 -362 75 -188 110 -357 143 -689 22 -221 26 -1129 5 -1385 -55
-680 -135 -1159 -264 -1570 l-40 -130 32 -25 c221 -172 419 -349 622 -559 697
-718 1463 -1797 1694 -2387 67 -172 86 -252 86 -369 0 -126 -24 -206 -93 -309
-169 -254 -495 -412 -1274 -621 -951 -254 -1962 -397 -3150 -446 -319 -13
-1184 -7 -1490 11 -2212 127 -4168 608 -5818 1431 -260 129 -254 121 -193 251
24 51 86 172 138 268 756 1393 1890 2775 3261 3973 1276 1115 2713 2042 4059
2617 625 268 1126 434 1413 469 112 13 317 6 390 -14z m-11577 -9122 c17 -15
25 -48 46 -203 208 -1494 151 -3090 -169 -4785 -80 -422 -223 -1026 -345
-1455 -381 -1339 -891 -2545 -1516 -3588 -151 -251 -226 -365 -462 -702 -195
-277 -287 -394 -408 -513 -322 -316 -567 -358 -892 -151 -327 209 -649 544
-1043 1084 -487 668 -963 1519 -1149 2056 l-31 91 -182 6 c-446 16 -1087 136
-1781 333 -689 195 -1364 462 -1664 656 -103 68 -259 225 -305 308 -54 99 -71
168 -70 290 1 294 177 630 616 1180 648 810 1545 1663 2522 2396 2033 1527
4384 2599 6520 2974 255 44 285 46 313 23z m2020 -18 c984 -169 2112 -521
3177 -993 1950 -863 3883 -2212 5245 -3657 326 -346 493 -540 760 -885 246
-317 360 -498 439 -695 98 -246 93 -443 -14 -612 -102 -160 -425 -401 -722
-540 -865 -402 -2333 -763 -3104 -763 l-97 0 -18 -47 c-181 -491 -478 -1050
-866 -1631 -600 -899 -1172 -1518 -1528 -1653 -76 -29 -207 -36 -287 -16 -223
58 -435 243 -736 646 -1417 1891 -2439 4846 -2661 7691 -9 107 -21 285 -28
395 -17 268 -17 1256 0 1520 26 400 71 839 117 1142 24 155 13 151 323 98z"/>
</g>
</svg>
